<svg width="75" height="75" viewBox="0 0 75 75" fill="none" xmlns="http://www.w3.org/2000/svg">
<g filter="url(#filter0_d_656_1372)">
<circle cx="37.5" cy="37.5" r="30.5" fill="white"/>
</g>
<path d="M24.0887 33.5043L24.0795 33.578C23.8888 35.1035 24.0422 36.6524 24.5284 38.1109L24.7375 38.7384C25.2866 40.3855 26.15 41.9105 27.2799 43.2287C28.5086 44.6622 29.8691 45.9773 31.3434 47.1568L31.8179 47.5842C33.6007 49.19 35.5525 50.5976 37.639 51.7823C37.8765 51.9172 38.1696 51.9153 38.4063 51.7792C40.4533 50.6019 42.3897 49.2098 44.1553 47.6418L44.7014 47.1568C46.1757 45.9773 47.5362 44.6622 48.7649 43.2287C49.8948 41.9105 50.7582 40.3855 51.3073 38.7384L51.5164 38.1109C52.0026 36.6524 52.156 35.1035 51.9653 33.578L51.9561 33.5043C51.7654 31.9792 51.0719 30.5611 49.985 29.4743L49.6903 29.1795C48.2948 27.784 46.402 27 44.4285 27H44.2523C43.9082 27 43.5983 27.0124 43.3097 27.0443C41.6748 27.2248 40.163 28.337 39 29.5L38.5 30L38.0223 30.5581L37.5 30L37 29.5C35.8111 28.3111 34.3107 27.1959 32.6371 27.0348C32.3783 27.0099 32.1003 27 31.7925 27H31.6163C29.6428 27 27.75 27.784 26.3545 29.1795L26.0597 29.4743C24.9729 30.5611 24.2794 31.9792 24.0887 33.5043Z" fill="#D87878"/>
<path d="M48 37C47.5648 38.3159 47.0667 39.7511 46.1709 40.8043C45.1969 41.9496 44.1687 43.0577 43 44" stroke="white" stroke-width="2" stroke-linecap="round"/>
<circle cx="49" cy="34" r="1" fill="white"/>
<defs>
<filter id="filter0_d_656_1372" x="0" y="0" width="75" height="75" filterUnits="userSpaceOnUse" color-interpolation-filters="sRGB">
<feFlood flood-opacity="0" result="BackgroundImageFix"/>
<feColorMatrix in="SourceAlpha" type="matrix" values="0 0 0 0 0 0 0 0 0 0 0 0 0 0 0 0 0 0 127 0" result="hardAlpha"/>
<feOffset/>
<feGaussianBlur stdDeviation="3.5"/>
<feComposite in2="hardAlpha" operator="out"/>
<feColorMatrix type="matrix" values="0 0 0 0 0 0 0 0 0 0 0 0 0 0 0 0 0 0 0.25 0"/>
<feBlend mode="normal" in2="BackgroundImageFix" result="effect1_dropShadow_656_1372"/>
<feBlend mode="normal" in="SourceGraphic" in2="effect1_dropShadow_656_1372" result="shape"/>
</filter>
</defs>
</svg>
