<svg width="38" height="38" viewBox="0 0 38 38" fill="none" xmlns="http://www.w3.org/2000/svg">
<rect width="37.9999" height="37.9999"/>
<path d="M9.16097 21.7843C9.2638 21.2701 9.71526 20.9 10.2396 20.9H27.7604C28.2847 20.9 28.7362 21.2701 28.839 21.7843L30.639 30.7843C30.7752 31.4649 30.2545 32.1 29.5604 32.1H8.43961C7.74546 32.1 7.22483 31.4649 7.36097 30.7843L9.16097 21.7843Z"  stroke="#333333" stroke-width="1.8"/>
<path d="M9.1 13.1436C9.1 14.9477 9.67058 16.6115 10.6477 18.0069C10.7181 18.159 10.8109 18.3066 10.9274 18.4462L17.3513 26.145L18.0423 25.5684L17.3513 26.145C18.1912 27.1517 19.8088 27.1517 20.6487 26.145L27.0726 18.4462C27.1891 18.3066 27.2819 18.159 27.3523 18.0069C28.3294 16.6115 28.9 14.9477 28.9 13.1436C28.9 8.06639 24.3808 4.1 19 4.1C13.6192 4.1 9.1 8.06639 9.1 13.1436Z"  stroke="white" stroke-width="1.8"/>
<path d="M12.692 17.4552L12.715 17.4365L12.692 17.4552L17.6656 23.5863C18.3976 24.4886 19.8146 24.4886 20.5465 23.5863L25.5202 17.4552C25.6175 17.3353 25.6954 17.209 25.7554 17.0789C26.5254 15.9421 26.9744 14.5891 26.9744 13.1245C26.9744 8.9859 23.3896 5.73916 19.1061 5.73916C14.8225 5.73916 11.2378 8.9859 11.2378 13.1245C11.2378 14.5891 11.6868 15.9421 12.4568 17.079C12.5167 17.209 12.5947 17.3353 12.692 17.4552Z" stroke="#333333" stroke-width="1.8"/>
<circle cx="19.106" cy="12.9113" r="2.99048" stroke="#333333" stroke-width="1.8"/>
</svg>
