<svg width="38" height="38" viewBox="0 0 38 38" fill="none" xmlns="http://www.w3.org/2000/svg">
<path d="M9.25903 21.8039C9.35251 21.3365 9.76293 21 10.2396 21H27.7604C28.2371 21 28.6475 21.3365 28.741 21.8039L30.541 30.8039C30.6647 31.4227 30.1914 32 29.5604 32H8.43961C7.80856 32 7.33527 31.4227 7.45903 30.8039L9.25903 21.8039Z" stroke="#333333" stroke-width="2"/>
<path d="M10.8506 18.5103L10.8794 18.4862L10.8506 18.5103L17.2745 26.2091L17.9438 25.6506L17.2745 26.2091C18.1544 27.2636 19.8456 27.2636 20.7255 26.2091L27.1494 18.5103C27.2692 18.3666 27.3652 18.2149 27.4387 18.0585C28.4242 16.6489 29 14.968 29 13.1436C29 8.00199 24.4264 4 19 4C13.5736 4 9 8.00199 9 13.1436C9 14.968 9.57585 16.6489 10.5613 18.0585C10.6348 18.2149 10.7308 18.3666 10.8506 18.5103Z" fill="#FFEAA0" stroke="#FFEAA0" stroke-width="2"/>
<path d="M11.1377 13.1245C11.1377 14.6086 11.5916 15.9784 12.3698 17.1294C12.4326 17.2637 12.5136 17.3942 12.6142 17.5182L17.5879 23.6493C18.3598 24.6009 19.8521 24.6009 20.6241 23.6493L25.5978 17.5182C25.6983 17.3942 25.7794 17.2637 25.8421 17.1294C26.6203 15.9784 27.0742 14.6086 27.0742 13.1245C27.0742 8.92403 23.4379 5.63916 19.106 5.63916C14.7741 5.63916 11.1377 8.92403 11.1377 13.1245Z" stroke="#333333" stroke-width="2"/>
<circle cx="19.1059" cy="12.9113" r="3.09048" stroke="#333333" stroke-width="2"/>
</svg>
