<svg width="38" height="38" viewBox="0 0 38 38" fill="none" xmlns="http://www.w3.org/2000/svg">
<rect width="37.9999" height="37.9999" fill="white"/>
<path d="M9.25903 21.8039C9.35251 21.3365 9.76293 21 10.2396 21H27.7604C28.2371 21 28.6475 21.3365 28.741 21.8039L30.541 30.8039C30.6647 31.4227 30.1914 32 29.5604 32H8.43961C7.80856 32 7.33527 31.4227 7.45903 30.8039L9.25903 21.8039Z" fill="white" stroke="#333333" stroke-width="2"/>
<path d="M9.1 13.1436C9.1 14.9477 9.67058 16.6115 10.6477 18.0069C10.7181 18.159 10.8109 18.3066 10.9274 18.4462L17.3513 26.145L18.0423 25.5684L17.3513 26.145C18.1912 27.1517 19.8088 27.1517 20.6487 26.145L27.0726 18.4462C27.1891 18.3066 27.2819 18.159 27.3523 18.0069C28.3294 16.6115 28.9 14.9477 28.9 13.1436C28.9 8.06639 24.3808 4.1 19 4.1C13.6192 4.1 9.1 8.06639 9.1 13.1436Z" fill="white" stroke="white" stroke-width="1.8"/>
<path d="M12.6918 17.4552L12.7149 17.4365L12.6918 17.4552L17.6655 23.5863C18.3974 24.4886 19.8145 24.4886 20.5464 23.5863L25.5201 17.4552C25.6173 17.3353 25.6953 17.209 25.7552 17.0789C26.5253 15.9421 26.9742 14.5891 26.9742 13.1245C26.9742 8.9859 23.3895 5.73916 19.106 5.73916C14.8224 5.73916 11.2377 8.9859 11.2377 13.1245C11.2377 14.5891 11.6867 15.9421 12.4567 17.079C12.5166 17.209 12.5946 17.3353 12.6918 17.4552Z" fill="#333333" stroke="#333333" stroke-width="1.8"/>
<circle cx="19.1059" cy="12.911" r="2.99048" fill="white" stroke="#333333" stroke-width="1.8"/>
</svg>
