<svg width="38" height="38" viewBox="0 0 38 38" fill="none" xmlns="http://www.w3.org/2000/svg">
<rect width="37.9999" height="37.9999" fill="white"/>
<circle cx="19.4222" cy="12.6664" r="6.69997" fill="#333333" stroke="#333333" stroke-width="1.8"/>
<line x1="8.6499" y1="30.5498" x2="30.1499" y2="30.5498" stroke="#333333" stroke-width="1.5" stroke-linecap="round"/>
<path d="M8.44434 30.4001C8.57986 26.7409 10.9651 19.4224 19.4221 19.4224" stroke="#333333" stroke-width="1.8" stroke-linecap="round"/>
<path d="M30.3999 30.4001C30.2644 26.7409 27.8791 19.4224 19.4222 19.4224" stroke="#333333" stroke-width="1.8" stroke-linecap="round"/>
<path d="M30 30.5C30 29.1211 29.7284 27.7557 29.2007 26.4818C28.6731 25.2079 27.8996 24.0504 26.9246 23.0754C25.9496 22.1004 24.7921 21.3269 23.5182 20.7993C22.2443 20.2716 20.8789 20 19.5 20C18.1211 20 16.7557 20.2716 15.4818 20.7993C14.2079 21.3269 13.0504 22.1004 12.0754 23.0754C11.1004 24.0504 10.3269 25.2079 9.79926 26.4818C9.27159 27.7557 9 29.1211 9 30.5L30 30.5Z" fill="#333333"/>
</svg>
